<svg width="14" height="10" viewBox="0 0 14 10" fill="none" xmlns="http://www.w3.org/2000/svg">
<path d="M5.90162 9.60892C5.5172 9.60901 5.14848 9.45641 4.87656 9.18468L1.27913 5.58724C1.00732 5.31543 0.854614 4.94678 0.854614 4.56239C0.854614 4.17799 1.00732 3.80934 1.27913 3.53753C1.55093 3.26572 1.91958 3.11302 2.30398 3.11302C2.68837 3.11302 3.05703 3.26572 3.32884 3.53753L5.89997 6.10866L10.9107 1.09748C11.0453 0.962895 11.2051 0.856136 11.3809 0.783299C11.5568 0.710461 11.7453 0.672974 11.9356 0.672974C12.1259 0.672974 12.3144 0.710461 12.4902 0.783299C12.6661 0.856136 12.8259 0.962895 12.9604 1.09748C13.095 1.23207 13.2018 1.39184 13.2746 1.56769C13.3475 1.74353 13.385 1.932 13.385 2.12234C13.385 2.31267 13.3475 2.50114 13.2746 2.67698C13.2018 2.85283 13.095 3.0126 12.9604 3.14719L6.92337 9.18426C6.65235 9.45537 6.28497 9.60807 5.90162 9.60892Z" fill="white"/>
</svg>
