<svg width="8" height="7" viewBox="0 0 8 7" fill="none" xmlns="http://www.w3.org/2000/svg">
<path d="M4 0C3.20888 0 2.43552 0.205271 1.77772 0.589856C1.11992 0.974441 0.607234 1.52107 0.304484 2.16061C0.00173312 2.80015 -0.0774802 3.50388 0.0768607 4.18282C0.231201 4.86175 0.612165 5.48539 1.17157 5.97487C1.73098 6.46436 2.44372 6.7977 3.21964 6.93275C3.99556 7.0678 4.79983 6.99848 5.53074 6.73358C6.26164 6.46867 6.88635 6.02007 7.32588 5.44449C7.7654 4.86892 8 4.19223 8 3.5C8 2.57174 7.57857 1.6815 6.82843 1.02513C6.07828 0.368749 5.06087 0 4 0ZM4 5.25C3.60444 5.25 3.21776 5.14736 2.88886 4.95507C2.55996 4.76278 2.30362 4.48947 2.15224 4.16969C2.00087 3.84992 1.96126 3.49806 2.03843 3.15859C2.1156 2.81912 2.30608 2.5073 2.58579 2.26256C2.86549 2.01782 3.22186 1.85115 3.60982 1.78363C3.99778 1.7161 4.39992 1.75076 4.76537 1.88321C5.13082 2.01566 5.44318 2.23997 5.66294 2.52775C5.8827 2.81554 6 3.15388 6 3.5C6 3.96413 5.78929 4.40925 5.41421 4.73744C5.03914 5.06562 4.53043 5.25 4 5.25Z" fill="#AEAEAE"/>
</svg>
