<svg width="20" height="23" viewBox="0 0 20 23" fill="none" xmlns="http://www.w3.org/2000/svg">
<path d="M10 22.9999C9.16255 23.0041 8.33626 22.8148 7.59032 22.448C6.84438 22.0812 6.20049 21.5476 5.71258 20.8918C1.92243 15.8543 0 12.0673 0 9.63521C0 7.07979 1.05357 4.62904 2.92893 2.82209C4.8043 1.01514 7.34784 0 10 0C12.6522 0 15.1957 1.01514 17.0711 2.82209C18.9464 4.62904 20 7.07979 20 9.63521C20 12.0673 18.0776 15.8543 14.2874 20.8918C13.7995 21.5476 13.1556 22.0812 12.4097 22.448C11.6637 22.8148 10.8375 23.0041 10 22.9999ZM10 2.09186C7.92384 2.09414 5.93338 2.88982 4.46531 4.30434C2.99724 5.71886 2.17144 7.6367 2.16907 9.63713C2.16907 11.5632 4.05172 15.125 7.46892 19.6662C7.75902 20.0512 8.1396 20.3645 8.57953 20.5806C9.01945 20.7967 9.50622 20.9093 10 20.9093C10.4938 20.9093 10.9805 20.7967 11.4205 20.5806C11.8604 20.3645 12.241 20.0512 12.5311 19.6662C15.9483 15.125 17.8309 11.5632 17.8309 9.63713C17.8286 7.6367 17.0028 5.71886 15.5347 4.30434C14.0666 2.88982 12.0762 2.09414 10 2.09186Z" fill="#AEAEAE"/>
</svg>
